<?xml version="1.0" encoding="UTF-8" standalone="no"?>
<!-- Created with Inkscape (http://www.inkscape.org/) -->

<svg
   width="1903.0369mm"
   height="700.98553mm"
   viewBox="0 0 1903.0369 700.98553"
   version="1.1"
   id="svg1"
   xml:space="preserve"
   sodipodi:docname="Full_Logo.svg"
   inkscape:export-filename="..\Nextcloud\LetterJLabs\GraphicDesign\HiResLogos\Full_Logo.png"
   inkscape:export-xdpi="96"
   inkscape:export-ydpi="96"
   inkscape:version="1.4.2 (f4327f4, 2025-05-13)"
   xmlns:inkscape="http://www.inkscape.org/namespaces/inkscape"
   xmlns:sodipodi="http://sodipodi.sourceforge.net/DTD/sodipodi-0.dtd"
   xmlns="http://www.w3.org/2000/svg"
   xmlns:svg="http://www.w3.org/2000/svg"><sodipodi:namedview
     id="namedview1"
     pagecolor="#ffffff"
     bordercolor="#000000"
     borderopacity="0.25"
     inkscape:showpageshadow="2"
     inkscape:pageopacity="0.0"
     inkscape:pagecheckerboard="0"
     inkscape:deskcolor="#d1d1d1"
     inkscape:document-units="mm"
     inkscape:zoom="0.1767767"
     inkscape:cx="3077.3287"
     inkscape:cy="302.6417"
     inkscape:window-width="2560"
     inkscape:window-height="1369"
     inkscape:window-x="-8"
     inkscape:window-y="-8"
     inkscape:window-maximized="1"
     inkscape:current-layer="layer1" /><defs
     id="defs1" /><g
     inkscape:label="Layer 1"
     inkscape:groupmode="layer"
     id="layer1"
     transform="translate(-0.00154735,-0.00515821)"><path
       style="fill:#ff6600"
       d="m 1172.0852,698.90295 c -39.867,-8.6595 -70.1443,-32.4541 -88.079,-69.2203 -8.1635,-16.7352 -12.0666,-31.3387 -13.7874,-51.5858 -3.544,-41.6985 10.1918,-80.2305 38.6643,-108.4618 24.2221,-24.017 53.0201,-35.9273 86.8232,-35.9085 43.2631,0.024 78.9027,18.7253 98.9438,51.919 l 5.6304,9.3257 0.3911,-27.5196 0.3911,-27.5196 h 20.8844 20.8843 v 127.09 127.09 h -20.9148 -20.9149 v -27.5509 -27.5509 l -5.4008,9.046 c -7.5619,12.6656 -27.3008,31.3931 -40.7561,38.6678 -16.5102,8.9264 -33.1112,13.0978 -54.8113,13.7725 -12.8517,0.3997 -20.8786,-0.058 -27.9483,-1.5936 z m 53.1904,-39.0065 c 40.1761,-8.1392 70.4437,-43.029 73.743,-85.0047 4.2101,-53.5632 -35.3166,-99.5415 -88.0346,-102.4036 -43.9147,-2.3843 -81.0932,23.7323 -94.812,66.6021 -2.7246,8.514 -3.3499,13.6112 -3.3411,27.2335 0.011,17.3847 1.5668,26.0106 7.2004,39.9295 6.2667,15.4826 20.4425,32.2512 35.3481,41.8132 18.9925,12.1838 45.7747,16.7167 69.8962,11.83 z m 294.9212,39.116 c -31.267,-6.0375 -58.7091,-24.6708 -74.2554,-50.4197 l -5.7477,-9.5198 -0.3911,27.5196 -0.3911,27.5195 h -20.8844 -20.8843 v -175.2724 -175.2725 h 21.6235 21.6235 l 0.3731,75.0006 0.3732,75.0007 5.7015,-9.4402 c 6.6639,-11.0336 25.1071,-28.6744 37.2335,-35.6136 19.5029,-11.1602 42.8379,-16.549 64.8448,-14.9745 57.1881,4.0914 101.1596,41.1053 116.6932,98.2289 3.831,14.0885 5.2248,43.7069 2.7581,58.6137 -9.1191,55.1096 -49.042,97.5176 -101.742,108.075 -14.8939,2.9837 -33.2271,3.2004 -46.9284,0.5547 z m 34.9342,-39.1194 c 16.5276,-3.2851 30.2683,-10.7096 43.9119,-23.7266 13.1683,-12.5636 20.2185,-24.2938 24.9452,-41.5037 4.0394,-14.7077 4.8421,-25.2486 3.0087,-39.5117 -3.0914,-24.0494 -11.511,-41.1412 -28.2983,-57.4454 -34.6936,-33.6952 -92.5219,-33.9234 -127.3993,-0.5027 -25.9356,24.8523 -35.987,60.7385 -26.7925,95.6561 8.5203,32.3575 35.9665,59.4202 67.8248,66.8771 11.4484,2.6797 29.7696,2.7469 42.7995,0.1569 z m 221.1426,40.2006 c -11.4385,-1.5408 -28.5849,-6.6892 -39.666,-11.9102 -26.5686,-12.5181 -47.5994,-41.6118 -47.5994,-65.8484 v -5.0356 h 20.714 20.7139 l 0.8425,6.8875 c 2.4691,20.186 21.2257,36.448 47.6461,41.3096 34.2928,6.3101 65.7235,-2.8125 76.353,-22.161 4.8111,-8.7575 4.5998,-27.1231 -0.412,-35.8123 -7.299,-12.6546 -21.4197,-18.6177 -59.8408,-25.2703 -39.5201,-6.8429 -60.4998,-14.8573 -74.958,-28.6344 -26.2511,-25.0145 -25.3216,-70.4186 1.9811,-96.7715 9.1525,-8.8342 21.5211,-15.2423 38.6711,-20.0355 15.8917,-4.4415 51.7372,-4.395 68.9235,0.09 18.1755,4.7425 31.6609,11.9566 43.4292,23.2327 11.5822,11.0978 17.1587,20.5428 20.1227,34.0824 3.3793,15.4367 5.1593,14.149 -19.5586,14.149 h -21.6361 l -0.014,-3.8406 c -0.021,-5.5853 -6.0893,-17.1169 -11.7091,-22.2487 -17.197,-15.7039 -53.6635,-19.3369 -77.1902,-7.6901 -7.482,3.7039 -15.4015,12.5341 -17.5928,19.6158 -3.8098,12.3119 -1.2276,27.4065 5.9674,34.8843 7.5105,7.8056 30.5832,15.3967 59.7916,19.6719 54.3923,7.9614 82.4006,25.4121 89.8241,55.9657 4.594,18.9079 0.9184,42.616 -8.9266,57.5776 -9.8567,14.9793 -30.7114,28.7858 -50.9683,33.7427 -17.4649,4.2736 -48.7539,6.2259 -64.9082,4.0499 z M 0.00155213,692.36635 c 0.02613,-0.9602 7.65974097,-36.3114 16.96357787,-78.5584 l 16.916067,-76.8126 289.186523,-0.7357 289.18652,-0.7356 10.81803,-3.0544 c 62.78317,-17.7262 105.30134,-63.0716 116.07622,-123.7947 1.90233,-10.7208 2.20085,-39.2781 2.20085,-210.5365 V 0.00515821 h 81.56629 81.56629 L 903.9536,205.65355 c -0.58257,226.7664 -0.10544,214.5142 -9.82573,252.3128 -6.30984,24.5366 -11.54008,38.3011 -23.66138,62.2699 -38.90079,76.9228 -104.08226,131.8118 -188.25569,158.5291 -20.14972,6.3957 -47.47077,12.0278 -67.58518,13.9324 -23.68897,2.243 -614.68546087,1.9244 -614.62406787,-0.3314 z M 992.32751,518.14135 v -175.9708 h 21.63599 21.636 v 175.9708 175.9707 h -21.636 -21.63599 z M 95.152653,253.48685 V 4.1949581 h 34.617677 34.61768 V 253.48685 502.77875 H 129.77033 95.152653 Z m 272.614227,248.3328 c -53.59003,-2.9886 -87.29782,-28.2836 -101.68297,-76.305 -6.46785,-21.5914 -6.76148,-26.6188 -7.49832,-128.3843 l -0.70532,-97.4124 h -40.25531 -40.25532 v -30.0267 -30.0268 h 40.3873 40.38729 v -52.372193 -52.3723 h 24.30323 c 13.36677,0 29.26927,-0.4064 35.33888,-0.9032 l 11.03565,-0.9032 v 53.2754 53.275493 h 60.58094 60.58094 v 30.0268 30.0267 h -60.58094 -60.58094 v 93.6307 c 0,79.5136 0.34032,95.2259 2.25717,104.2112 5.98455,28.0529 20.265,41.7829 46.94593,45.1364 5.86115,0.7366 24.44962,1.3588 41.30771,1.3825 l 30.65107,0.043 v 29.3285 29.3284 l -37.14189,-0.2583 c -20.42803,-0.1421 -40.71183,-0.4574 -45.0751,-0.7008 z m 111.06506,-180.598 v -181.5572 h 33.86888 33.86888 l 0.3882,30.972 0.38819,30.9719 5.52193,-8.6649 c 15.38083,-24.1354 40.03764,-41.6005 69.48305,-49.2168 9.31931,-2.4105 17.15838,-3.1222 40.74789,-3.6993 l 29.20867,-0.7146 v 29.9948 29.9948 l -26.32386,0.8484 c -41.8815,1.3498 -56.62155,6.3518 -78.71314,26.7109 -18.21672,16.7881 -29.17954,37.9373 -35.88135,69.2213 -1.86579,8.7095 -2.35211,27.0063 -2.88614,108.5851 l -0.64225,98.1107 h -34.51448 -34.51447 z"
       id="path1" /></g></svg>
