<?xml version="1.0" encoding="UTF-8" standalone="no"?>
<!-- Created with Inkscape (http://www.inkscape.org/) -->

<svg
   version="1.1"
   id="svg1"
   width="3419"
   height="2623"
   viewBox="0 0 3419 2623"
   sodipodi:docname="Small_Logo_Black.svg"
   inkscape:export-filename="..\LowResLogos\Small_Logo_LowRes.png"
   inkscape:export-xdpi="2"
   inkscape:export-ydpi="2"
   inkscape:version="1.4.2 (f4327f4, 2025-05-13)"
   xmlns:inkscape="http://www.inkscape.org/namespaces/inkscape"
   xmlns:sodipodi="http://sodipodi.sourceforge.net/DTD/sodipodi-0.dtd"
   xmlns="http://www.w3.org/2000/svg"
   xmlns:svg="http://www.w3.org/2000/svg">
  <defs
     id="defs1" />
  <sodipodi:namedview
     id="namedview1"
     pagecolor="#ffffff"
     bordercolor="#000000"
     borderopacity="0.25"
     inkscape:showpageshadow="2"
     inkscape:pageopacity="0.0"
     inkscape:pagecheckerboard="0"
     inkscape:deskcolor="#d1d1d1"
     inkscape:zoom="0.31459917"
     inkscape:cx="2043.8706"
     inkscape:cy="1069.615"
     inkscape:window-width="2560"
     inkscape:window-height="1369"
     inkscape:window-x="-8"
     inkscape:window-y="-8"
     inkscape:window-maximized="1"
     inkscape:current-layer="g1" />
  <g
     inkscape:groupmode="layer"
     inkscape:label="Image"
     id="g1">
    <path
       style="fill:#000000"
       d="m 1332,2622.4776 -666.5,0.3002 -179,-0.7979 -179,-0.798 -117.5,-1.1206 -117.5,-1.1207 -35.477728,-0.998 -35.4777288,-0.9981 -0.73280193,-0.7328 -0.73280197,-0.7328 8.3919734,-39.4894 8.3919733,-39.4895 9.126427,-42 9.126426,-42 11.398367,-52.0651 11.398367,-52.0652 35.102792,-159.4105 35.102795,-159.4106 0.19097,-0.123 0.19097,-0.1229 689.5,-1.6736 689.5,-1.6736 403,-1.0317 403,-1.0317 27,-7.5447 27,-7.5448 19.2666,-6.3693 19.2666,-6.3693 19.2334,-7.6437 19.2334,-7.6437 15.5402,-7.2041 15.5401,-7.2042 14.6998,-7.7356 14.6998,-7.7357 18.1174,-10.9285 18.1174,-10.9285 15.7816,-11.0684 15.7817,-11.0683 14.006,-11.2016 14.006,-11.2017 11.4027,-10.1774 11.4027,-10.1773 16.9523,-17.3338 16.9523,-17.3338 10.8097,-12.9526 10.8097,-12.9527 8.6666,-11.5362 8.6666,-11.5362 9.6509,-14.5 9.6509,-14.5 8.1939,-14 8.1939,-14 9.3769,-19 9.3769,-19 6.6551,-16 6.655,-16 7.7977,-23.5 7.7976,-23.5 4.0387,-16 4.0386,-16 2.5655,-12.2889 2.5655,-12.289 1.4468,-9.711 1.4467,-9.7111 1.0418,-14.5 1.0417,-14.5 1.0181,-30.5 1.0182,-30.5 0.9692,-102.5 0.9692,-102.5 0.019,-617.75 L 2802,0 l 308.569,0 308.5691,0 -0.5642,33.25 -0.5642,33.25 -0.5422,303.5 -0.5421,303.5 -0.9627,313 -0.9626,313 -1.0037,78 -1.0036,78 -0.9982,33.5 -0.9981,33.5 -1.019,20 -1.019,20 -1.0327,14.5 -1.0327,14.5 -1.9592,17.5 -1.9592,17.5 -2.5199,14.5 -2.5199,14.5 -3.0128,13.5 -3.0128,13.5 -8.0276,31 -8.0277,31 -4.967,18 -4.9669,18 -5.4884,17.6807 -5.4884,17.6807 -5.9046,16.4486 -5.9047,16.4486 -7.207,17.8707 -7.207,17.8707 -6.948,15.5 -6.9479,15.5 -17.8593,36 -17.8593,36 -10.8918,19.5 -10.8917,19.5 -8.3341,14 -8.3341,14 -11.445,18 -11.4451,18 -11.0669,16 -11.0669,16 -9.5144,13 -9.5145,13 -11.6565,15 -11.6564,15 -11.2561,13.5 -11.256,13.5 -14.5596,16.5 -14.5596,16.5 -31.5784,31.5587 -31.5784,31.5588 -16.5,14.497 -16.5,14.497 -14.5,12.0453 -14.5,12.0453 -13.5,10.4194 -13.5,10.4193 -13,9.5722 -13,9.5722 -16,10.9118 -16,10.9118 -12.5,8.091 -12.5,8.0911 -16.5,9.9821 -16.5,9.9821 -17.5,9.8318 -17.5,9.8317 -22,11.283 -22,11.2829 -17,7.9495 -17,7.9495 -22,9.4772 -22,9.4773 -24,9.2287 -24,9.2287 -29.5,9.8582 -29.5,9.8582 -19.5,5.4889 -19.5,5.4889 -20,5 -20,5 -18,3.9845 -18,3.9845 -18,3.5295 -18,3.5295 -21,3.4844 -21,3.4844 -11,1.568 -11,1.568 -17.4382,1.9819 -17.4383,1.9819 -45.0617,1.0192 -45.0618,1.0191 -115.5,1.0765 -115.5,1.0765 z M 490.5,1900 H 360 V 958 16 H 490.5 621 v 942 942 z m 1186.7544,-0.2386 -23.7544,-0.2386 -41.5,-0.2112 -41.5,-0.2112 -82.5,-1.0798 -82.5,-1.0798 -17,-0.979 -17,-0.9791 -10,-1.0195 -10,-1.0194 -14.5,-2.0111 -14.5,-2.0112 -17.5,-3.5001 -17.5,-3.5002 -13,-3.4982 -13,-3.4983 -14.7406,-4.9642 -14.7407,-4.9642 -14.2593,-6.0717 -14.2594,-6.0717 -12.3684,-6.4787 -12.3685,-6.4787 -11.8665,-7.3787 -11.8666,-7.3788 -11.4503,-8.5149 -11.4503,-8.515 -12.1588,-10.7158 -12.1589,-10.7159 -10.2101,-11.1815 -10.21,-11.1815 -6.7319,-8.4067 -6.7319,-8.4067 -7.377,-10.5 -7.377,-10.5 -6.6298,-11 -6.6297,-11 -7.8539,-15.5 -7.8538,-15.5 -5.4644,-13 -5.4644,-13 -4.1253,-11.5 -4.1253,-11.5 -5.0804,-16.5 -5.0804,-16.5 -3.88504,-15.5 -3.88507,-15.5 -2.0289,-11.5 -2.02891,-11.5 -1.50048,-12.3186 -1.50047,-12.3186 -1.50153,-20.6814 -1.50152,-20.6814 -1.01042,-26 -1.01042,-26 -0.98938,-54 -0.98938,-54 -1.03213,-131 -1.03213,-131 -0.98309,-127.5 -0.98309,-127.5 -0.002,-19.75 L 975,755 H 823 671 V 641.5 528 H 823.5 976 V 330.13673 l 0,-197.86326 90.25,-0.60729 90.25,-0.60729 19.9083,-0.98924 19.9082,-0.98924 19.5918,-1.54044 19.5917,-1.54044 3.75,-0.51158 3.75,-0.51159 V 326.48818 528 l 229.0043,0 229.0042,0 -0.2542,113.25 -0.2543,113.25 -228.75,0.25215 -228.75,0.25215 0.018,290.7479 0.018,290.7478 0.974,50.5 0.9741,50.5 1.0136,17 1.0137,17 1.0356,9.5 1.0357,9.5 1.5238,8 1.5237,8 3.3685,13 3.3685,13 4.1567,12 4.1567,12 6.7914,14.0204 6.7915,14.0203 7.2735,10.8774 7.2736,10.8773 10.0942,10.4876 10.0943,10.4875 8.1518,6.3711 8.1518,6.3711 9.2382,5.459 9.2382,5.459 10.61,4.458 10.61,4.4581 8,2.5303 8,2.5304 8.199,2.0545 8.199,2.0545 11.301,1.932 11.301,1.932 12.5,1.0404 12.5,1.0404 22.5,1.1566 22.5,1.1566 102,0.6128 102,0.6127 0.2544,110.75 0.2543,110.75 z M 1940.3422,1900 H 1810 V 1214 528 h 128 128 l 0.055,19.25 0.055,19.25 1.2782,96.74977 1.2782,96.74977 0.4348,0.4348 0.4348,0.43481 11.916,-18.68457 11.916,-18.68458 7.0363,-10 7.0364,-10 9.9707,-12.5 9.9708,-12.5 19.059,-19.06459 19.059,-19.06459 13.4284,-10.69228 13.4283,-10.69228 11.5717,-8.08969 11.5716,-8.0897 13.5,-8.06772 13.5,-8.06773 14,-7.15413 14,-7.15413 16,-6.78007 16,-6.78007 17.5047,-5.85089 17.5047,-5.85089 15.9953,-3.99182 15.9953,-3.99182 9,-1.53624 9,-1.53623 14,-1.50382 14,-1.50383 17,-0.96489 17,-0.96489 15,-0.5929 15,-0.59291 58,-1.45731 58,-1.45731 10.75,-0.004 L 2617,527 v 113 113 l -1.4517,0 -1.4517,0 -59.7983,1.99603 -59.7983,1.99602 -24.5,1.54932 -24.5,1.54932 -14.5,1.50046 -14.5,1.50046 -12.5,1.92917 -12.5,1.92917 -5,0.95395 -5,0.95395 -7.5,1.66497 -7.5,1.66498 -12.2208,3.39924 -12.2207,3.39924 -12.7793,5.00735 -12.7792,5.00736 -9.5076,4.7495 -9.5076,4.74951 -10.7958,6.5 -10.7957,6.5 -14.1967,10.61929 -14.1966,10.61928 -11.4724,9.88072 -11.4724,9.88071 -12.9186,12.5 -12.9185,12.5 -9.4882,11 -9.4882,11 -7.2326,9.51916 -7.2326,9.51917 -7.031,10.48083 -7.0311,10.48084 -7.192,12.5 -7.192,12.5 -6.7882,14 -6.7883,14 -7.0319,17.5826 -7.0319,17.5825 -5.078,15.6834 -5.078,15.6835 -3.9074,14.2503 -3.9073,14.2504 -4.0865,17.6354 -4.0865,17.6353 -1.4962,11.8483 -1.4962,11.8483 -1.0302,16 -1.0302,16 -0.9749,30.5 -0.9749,30.5 -1.0208,76.5 -1.0208,76.5 -0.9847,143 -0.9846,143 -0.6742,110.75 -0.6742,110.75 z"
       id="path1" />
  </g>
</svg>
